<svg id="Layer_1" data-name="Layer 1" xmlns="http://www.w3.org/2000/svg" xmlns:xlink="http://www.w3.org/1999/xlink" viewBox="0 0 850.39 193.68"><defs><style>.cls-1{fill:none;}.cls-2{clip-path:url(#clip-path);}.cls-3{fill:#808285;}.cls-4{fill:#231f20;}</style><clipPath id="clip-path"><rect class="cls-1" width="850.39" height="193.68"/></clipPath></defs><title>Artboard 1</title><g class="cls-2"><path class="cls-3" d="M372.8,128.68a11.6,11.6,0,0,1-15.94,0,11,11,0,0,1,0-15.5,11.63,11.63,0,0,1,15.94,0,11,11,0,0,1,0,15.5M360,125.93a6.91,6.91,0,0,0,9.6,0,7.56,7.56,0,0,0,0-10,6.93,6.93,0,0,0-9.6,0,7.56,7.56,0,0,0,0,10"/><path class="cls-3" d="M386.23,108.58v1.76h5.58v3.58h-5.58v17.61h-4.47V113.92h-2.67v-3.58h2.67V108.7a7.09,7.09,0,0,1,2-5.32,6.66,6.66,0,0,1,4.86-2,7.6,7.6,0,0,1,5.2,2.11L392,106.67a3.82,3.82,0,0,0-2.75-1.4,2.85,2.85,0,0,0-2.24.9,3.55,3.55,0,0,0-.79,2.41"/><path class="cls-3" d="M401.61,108.58v1.76h5.58v3.58h-5.58v17.61h-4.46V113.92h-2.67v-3.58h2.67V108.7a7.12,7.12,0,0,1,2-5.32,6.66,6.66,0,0,1,4.86-2,7.6,7.6,0,0,1,5.2,2.11l-1.83,3.15a3.81,3.81,0,0,0-2.75-1.4,2.81,2.81,0,0,0-2.23.9,3.5,3.5,0,0,0-.8,2.41"/><path class="cls-3" d="M431.22,122.89H414.6a4.83,4.83,0,0,0,2.11,3.72,8.2,8.2,0,0,0,10.52-1.09l2.56,2.78a11.86,11.86,0,0,1-8.93,3.55,10.6,10.6,0,0,1-7.59-3,10.43,10.43,0,0,1-3.13-8,10.3,10.3,0,0,1,3.19-8,10.69,10.69,0,0,1,7.51-2.94,10.88,10.88,0,0,1,7.35,2.61,9,9,0,0,1,3,7.19Zm-16.62-3.51h12.16a5.12,5.12,0,0,0-1.68-4.11,6.13,6.13,0,0,0-4.12-1.43,7.12,7.12,0,0,0-4.41,1.49,4.84,4.84,0,0,0-1.95,4"/><path class="cls-3" d="M440.58,120.06v11.47h-4.46v-21.2h4.46v3.87a8.34,8.34,0,0,1,12.85-2,8.54,8.54,0,0,1,2.21,6.34v13h-4.45V119.9c0-3.91-1.63-5.86-4.87-5.86a5.88,5.88,0,0,0-4,1.53,5.73,5.73,0,0,0-1.71,4.49"/><path class="cls-3" d="M467.08,113.92v10.76a3.5,3.5,0,0,0,.8,2.41,2.83,2.83,0,0,0,2.23.9,3.81,3.81,0,0,0,2.75-1.4l1.84,3.15a7.64,7.64,0,0,1-5.21,2.11,6.68,6.68,0,0,1-4.86-2,7.12,7.12,0,0,1-2-5.32V113.92H460v-3.59h2.67v-6.65h4.46v6.65h5.58v3.59Z"/><rect class="cls-3" x="478.24" y="101.97" width="4.46" height="29.57"/><path class="cls-3" d="M489.44,106.11a2.78,2.78,0,1,1,2,.84,2.72,2.72,0,0,1-2-.84m4.18,25.42h-4.47V110.34h4.47Z"/><path class="cls-3" d="M519.68,110.34v18.48c0,3.75-1,6.56-3,8.43a11.06,11.06,0,0,1-7.83,2.81,13.81,13.81,0,0,1-8.64-3l2.11-3.38a10.32,10.32,0,0,0,6.27,2.35,7.34,7.34,0,0,0,5-1.64q1.84-1.64,1.85-5.22v-2.71a7.65,7.65,0,0,1-2.85,3,7.86,7.86,0,0,1-4.16,1.12,9,9,0,0,1-6.94-3,11.28,11.28,0,0,1,0-14.67,9,9,0,0,1,6.92-2.94,8.18,8.18,0,0,1,6.83,3.46v-3.14Zm-16.54,9.78a6.69,6.69,0,0,0,1.62,4.5,5.42,5.42,0,0,0,4.35,1.89,5.76,5.76,0,0,0,4.42-1.83,6.51,6.51,0,0,0,1.69-4.56,6.62,6.62,0,0,0-1.71-4.62,5.69,5.69,0,0,0-4.43-1.9,5.33,5.33,0,0,0-4.32,2,7,7,0,0,0-1.62,4.57"/><path class="cls-3" d="M531.64,113.92v10.76a3.55,3.55,0,0,0,.79,2.41,2.85,2.85,0,0,0,2.24.9,3.82,3.82,0,0,0,2.75-1.4l1.83,3.15a7.58,7.58,0,0,1-5.2,2.11,6.66,6.66,0,0,1-4.86-2,7.12,7.12,0,0,1-2-5.32V113.92H524.5v-3.59h2.68v-6.65h4.46v6.65h5.58v3.59Z"/><path class="cls-3" d="M356.7,176.64a10.84,10.84,0,0,1-3-8,10.39,10.39,0,0,1,3.07-7.88,10.18,10.18,0,0,1,7.31-3,8.06,8.06,0,0,1,6.84,3.59V149.78h4.46v29.57h-4.46v-3.19a8.28,8.28,0,0,1-7.22,3.51,9.53,9.53,0,0,1-7-3m1.48-7.79a6.62,6.62,0,0,0,1.95,5,6.32,6.32,0,0,0,4.58,1.92,5.89,5.89,0,0,0,4.46-1.93,6.91,6.91,0,0,0,1.84-5,7.25,7.25,0,0,0-1.84-5.06,5.83,5.83,0,0,0-4.5-2,6.08,6.08,0,0,0-4.58,2,7.11,7.11,0,0,0-1.91,5.08"/><path class="cls-3" d="M382.12,153.93a2.82,2.82,0,1,1,4.83-2,2.82,2.82,0,0,1-4.83,2m4.19,25.42h-4.47v-21.2h4.47Z"/><path class="cls-3" d="M412.37,158.15v18.49q0,5.63-3.05,8.43a11.11,11.11,0,0,1-7.83,2.81,13.75,13.75,0,0,1-8.65-3l2.11-3.38a10.43,10.43,0,0,0,6.28,2.35,7.31,7.31,0,0,0,5-1.64c1.24-1.09,1.86-2.82,1.86-5.22v-2.71a7.65,7.65,0,0,1-2.85,3,8,8,0,0,1-4.17,1.12,9,9,0,0,1-6.93-3,11.28,11.28,0,0,1,0-14.67,9,9,0,0,1,6.91-2.95,8.22,8.22,0,0,1,6.84,3.47v-3.15Zm-16.54,9.79a6.71,6.71,0,0,0,1.62,4.5,5.4,5.4,0,0,0,4.34,1.89,5.74,5.74,0,0,0,4.42-1.83,6.46,6.46,0,0,0,1.7-4.56,6.63,6.63,0,0,0-1.72-4.62,5.66,5.66,0,0,0-4.42-1.9,5.32,5.32,0,0,0-4.32,2,6.94,6.94,0,0,0-1.62,4.57"/><path class="cls-3" d="M419.1,153.93a2.82,2.82,0,1,1,4.83-2,2.82,2.82,0,0,1-4.83,2m4.19,25.42h-4.47v-21.2h4.47Z"/><path class="cls-3" d="M435.24,161.74V172.5a3.5,3.5,0,0,0,.8,2.41,2.81,2.81,0,0,0,2.23.9,3.81,3.81,0,0,0,2.75-1.4l1.84,3.15a7.62,7.62,0,0,1-5.21,2.11,6.68,6.68,0,0,1-4.86-2,7.12,7.12,0,0,1-2-5.32V161.74h-2.67v-3.59h2.67V151.5h4.46v6.65h5.58v3.59Z"/><path class="cls-3" d="M463.58,179.35h-4.07v-2.83a8.7,8.7,0,0,1-7.05,3.15A8.08,8.08,0,0,1,447,177.8a6.27,6.27,0,0,1-2.18-5,5.26,5.26,0,0,1,2.32-4.68,11,11,0,0,1,6.26-1.56h5.77v-.79q0-4.23-4.7-4.23a11.07,11.07,0,0,0-6.14,2.15l-2-2.79a13.7,13.7,0,0,1,8.76-3.07,9.54,9.54,0,0,1,6.12,1.9q2.37,1.89,2.37,6Zm-4.47-7.89v-1.79h-5q-4.81,0-4.82,3a2.7,2.7,0,0,0,1.2,2.37,5.84,5.84,0,0,0,3.32.82,6,6,0,0,0,3.73-1.2,3.83,3.83,0,0,0,1.59-3.23"/><rect class="cls-3" x="469.79" y="149.78" width="4.46" height="29.57"/><path class="cls-3" d="M481,153.93a2.78,2.78,0,1,1,2,.84,2.72,2.72,0,0,1-2-.84m4.19,25.42h-4.47v-21.2h4.47Z"/><path class="cls-3" d="M506.73,173a6,6,0,0,1-2.19,4.84,8.51,8.51,0,0,1-5.62,1.82,14.74,14.74,0,0,1-4.8-.85,14.34,14.34,0,0,1-4.41-2.35l2.16-3.46a12,12,0,0,0,7.17,2.79,3.81,3.81,0,0,0,2.4-.7,2.19,2.19,0,0,0,.87-1.77c0-1.07-1.41-2-4.23-2.87a3.28,3.28,0,0,0-.48-.16q-6.62-1.8-6.61-6a5.68,5.68,0,0,1,2.29-4.72,9.42,9.42,0,0,1,6-1.78,12.39,12.39,0,0,1,6.94,2.16l-1.68,3.3a10,10,0,0,0-5.62-1.71,5.09,5.09,0,0,0-2.59.58,1.89,1.89,0,0,0-1,1.73,1.58,1.58,0,0,0,1,1.51,9.87,9.87,0,0,0,2,.68c.87.22,1.63.43,2.29.64a20.35,20.35,0,0,1,1.94.72,12.16,12.16,0,0,1,2,1.11,5,5,0,0,1,2.15,4.47"/><path class="cls-3" d="M531.51,170.71H514.9a4.81,4.81,0,0,0,2.12,3.72,7.33,7.33,0,0,0,4.46,1.42,7.4,7.4,0,0,0,6-2.51l2.55,2.79a11.86,11.86,0,0,1-8.93,3.54,10.59,10.59,0,0,1-7.58-3,10.45,10.45,0,0,1-3.13-8,10.33,10.33,0,0,1,3.18-7.95,10.74,10.74,0,0,1,7.52-2.95,10.88,10.88,0,0,1,7.35,2.61,9,9,0,0,1,3,7.2ZM514.9,167.2h12.15a5.11,5.11,0,0,0-1.67-4.11,6.16,6.16,0,0,0-4.13-1.43,7.13,7.13,0,0,0-4.4,1.49,4.84,4.84,0,0,0-2,4"/><path class="cls-3" d="M547.54,162.34a5.92,5.92,0,0,0-5,2.15,9.15,9.15,0,0,0-1.68,5.78v9.08h-4.46v-21.2h4.46v4.27a9.31,9.31,0,0,1,2.93-3.27,7.12,7.12,0,0,1,3.93-1.32l0,4.51Z"/><path class="cls-3" d="M552.52,153.93a2.78,2.78,0,1,1,2,.84,2.72,2.72,0,0,1-2-.84m4.18,25.42h-4.46v-21.2h4.46Z"/><path class="cls-3" d="M567.62,167.87v11.48h-4.46v-21.2h4.46V162a8.32,8.32,0,0,1,12.86-2q2.21,2.19,2.2,6.34v13h-4.46V167.72q0-5.86-4.86-5.86a5.82,5.82,0,0,0-4,1.53,5.69,5.69,0,0,0-1.72,4.48"/><path class="cls-3" d="M608.51,158.15v18.49q0,5.63-3,8.43a11.11,11.11,0,0,1-7.83,2.81,13.75,13.75,0,0,1-8.65-3l2.11-3.38a10.43,10.43,0,0,0,6.28,2.35,7.33,7.33,0,0,0,5-1.64c1.23-1.09,1.85-2.82,1.85-5.22v-2.71a7.51,7.51,0,0,1-2.85,3,7.93,7.93,0,0,1-4.16,1.12,9,9,0,0,1-6.93-3,11.28,11.28,0,0,1,0-14.67,9,9,0,0,1,6.91-2.95A8.19,8.19,0,0,1,604,161.3v-3.15ZM592,167.94a6.75,6.75,0,0,0,1.61,4.5,5.44,5.44,0,0,0,4.35,1.89,5.74,5.74,0,0,0,4.42-1.83,6.45,6.45,0,0,0,1.69-4.56,6.62,6.62,0,0,0-1.71-4.62,5.67,5.67,0,0,0-4.42-1.9,5.34,5.34,0,0,0-4.33,2,7,7,0,0,0-1.61,4.57"/><path class="cls-3" d="M630.07,173a5.94,5.94,0,0,1-2.2,4.84,8.5,8.5,0,0,1-5.61,1.82,14.76,14.76,0,0,1-4.81-.85,14.29,14.29,0,0,1-4.4-2.35L615.2,173a12,12,0,0,0,7.17,2.79,3.76,3.76,0,0,0,2.39-.7,2.17,2.17,0,0,0,.88-1.77c0-1.07-1.41-2-4.22-2.87a3.73,3.73,0,0,0-.48-.16q-6.62-1.8-6.61-6a5.67,5.67,0,0,1,2.28-4.72,9.44,9.44,0,0,1,6-1.78,12.36,12.36,0,0,1,6.93,2.16l-1.68,3.3a10,10,0,0,0-5.62-1.71,5.09,5.09,0,0,0-2.59.58,1.88,1.88,0,0,0-1,1.73,1.56,1.56,0,0,0,1,1.51,9.66,9.66,0,0,0,2,.68c.86.22,1.62.43,2.29.64a20.16,20.16,0,0,1,1.93.72,12.22,12.22,0,0,1,2,1.11,5,5,0,0,1,2.15,4.47"/><path class="cls-3" d="M640.62,156.4v1.75h5.58v3.59h-5.58v17.61h-4.46V161.74h-2.67v-3.59h2.67v-1.63a7.12,7.12,0,0,1,2-5.32,6.7,6.7,0,0,1,4.87-2,7.65,7.65,0,0,1,5.2,2.1l-1.83,3.16a3.84,3.84,0,0,0-2.76-1.4,2.84,2.84,0,0,0-2.23.9,3.49,3.49,0,0,0-.8,2.41"/><path class="cls-3" d="M683.54,170.19H667.72a5.29,5.29,0,0,0,1.85,4.1,6.45,6.45,0,0,0,4.33,1.56,7,7,0,0,0,5.66-2.51l2.55,2.79a11.47,11.47,0,0,1-8.59,3.54,9.57,9.57,0,0,1-8.07-3.82,10.48,10.48,0,0,1-8.49,3.82,8.82,8.82,0,0,1-5.7-1.89,6.12,6.12,0,0,1-2.35-5,5.09,5.09,0,0,1,2.3-4.59,11.5,11.5,0,0,1,6.27-1.47h5.78v-.95q0-4.23-4.7-4.23a11.07,11.07,0,0,0-6.14,2.15l-2-2.79a13.73,13.73,0,0,1,8.76-3.06q4.9,0,7.06,2.94a9.67,9.67,0,0,1,7.23-2.94,10.25,10.25,0,0,1,7.21,2.6,9.27,9.27,0,0,1,2.85,7.2Zm-20.32,1.27v-1.27h-5q-3.71,0-4.47,1.11a2.64,2.64,0,0,0-.35,1.4,2.72,2.72,0,0,0,1.19,2.37,5.9,5.9,0,0,0,3.33.82,6,6,0,0,0,3.73-1.2,3.83,3.83,0,0,0,1.59-3.23M677.45,163a5.51,5.51,0,0,0-3.75-1.29,6.3,6.3,0,0,0-4,1.36,5,5,0,0,0-1.93,3.7l11.32,0a5.28,5.28,0,0,0-1.63-3.81"/><rect class="cls-3" x="688.44" y="149.78" width="4.46" height="29.57"/><rect class="cls-3" x="699.36" y="149.78" width="4.46" height="29.57"/><path class="cls-3" d="M730,170.71H713.39a4.83,4.83,0,0,0,2.11,3.72A8.2,8.2,0,0,0,726,173.34l2.55,2.79a11.86,11.86,0,0,1-8.93,3.54,10.64,10.64,0,0,1-7.59-3,10.48,10.48,0,0,1-3.13-8,10.34,10.34,0,0,1,3.19-7.95,10.73,10.73,0,0,1,7.51-2.95,10.89,10.89,0,0,1,7.36,2.61,9,9,0,0,1,3,7.2Zm-16.61-3.51h12.15a5.11,5.11,0,0,0-1.67-4.11,6.13,6.13,0,0,0-4.12-1.43,7.07,7.07,0,0,0-4.4,1.49,4.82,4.82,0,0,0-2,4"/><path class="cls-3" d="M750,173a6,6,0,0,1-2.19,4.84,8.51,8.51,0,0,1-5.62,1.82,14.74,14.74,0,0,1-4.8-.85,14.18,14.18,0,0,1-4.4-2.35l2.15-3.46a12,12,0,0,0,7.17,2.79,3.76,3.76,0,0,0,2.39-.7,2.17,2.17,0,0,0,.88-1.77c0-1.07-1.41-2-4.22-2.87a4.33,4.33,0,0,0-.48-.16q-6.63-1.8-6.62-6a5.68,5.68,0,0,1,2.29-4.72,9.42,9.42,0,0,1,6-1.78,12.32,12.32,0,0,1,6.93,2.16l-1.67,3.3a10,10,0,0,0-5.62-1.71,5.07,5.07,0,0,0-2.59.58,1.89,1.89,0,0,0-1,1.73,1.58,1.58,0,0,0,1,1.51,9.87,9.87,0,0,0,2,.68c.87.22,1.63.43,2.3.64s1.3.45,1.93.72a12.16,12.16,0,0,1,2,1.11A5,5,0,0,1,750,173"/><path class="cls-3" d="M770.18,173a5.94,5.94,0,0,1-2.2,4.84,8.5,8.5,0,0,1-5.61,1.82,14.76,14.76,0,0,1-4.81-.85,14.29,14.29,0,0,1-4.4-2.35l2.15-3.46a12,12,0,0,0,7.17,2.79,3.76,3.76,0,0,0,2.39-.7,2.17,2.17,0,0,0,.88-1.77c0-1.07-1.4-2-4.22-2.87a3.28,3.28,0,0,0-.48-.16q-6.62-1.8-6.61-6a5.65,5.65,0,0,1,2.29-4.72,9.39,9.39,0,0,1,5.95-1.78,12.37,12.37,0,0,1,6.94,2.16l-1.67,3.3a10,10,0,0,0-5.62-1.71,5,5,0,0,0-2.59.58,1.87,1.87,0,0,0-1,1.73,1.56,1.56,0,0,0,1,1.51,9.45,9.45,0,0,0,2,.68c.86.22,1.62.43,2.29.64a20.16,20.16,0,0,1,1.93.72,11.77,11.77,0,0,1,2,1.11,5,5,0,0,1,2.16,4.47"/><polygon class="cls-3" points="779.7 179.35 775.23 179.35 775.23 149.78 779.7 149.78 779.7 167.16 788.31 158.15 794.05 158.15 786 166.56 794.64 179.35 789.22 179.35 782.93 170.07 779.7 173.34 779.7 179.35"/><path class="cls-3" d="M815.24,179.35h-4.06v-2.83a8.74,8.74,0,0,1-7.06,3.15,8.05,8.05,0,0,1-5.47-1.87,6.27,6.27,0,0,1-2.18-5,5.23,5.23,0,0,1,2.32-4.68,11,11,0,0,1,6.25-1.56h5.78v-.79q0-4.23-4.7-4.23a11.07,11.07,0,0,0-6.14,2.15l-2-2.79a13.74,13.74,0,0,1,8.76-3.07,9.52,9.52,0,0,1,6.12,1.9q2.37,1.89,2.37,6Zm-4.46-7.89v-1.79h-5c-3.22,0-4.82,1-4.82,3a2.72,2.72,0,0,0,1.19,2.37,5.9,5.9,0,0,0,3.33.82,6,6,0,0,0,3.72-1.2,3.81,3.81,0,0,0,1.6-3.23"/><path class="cls-3" d="M832.81,157.83a10.11,10.11,0,0,1,7.3,2.95,10.46,10.46,0,0,1,3,7.85,10.87,10.87,0,0,1-3,8,9.34,9.34,0,0,1-14.21-.43v3.18h-4.46V149.78h4.46v12.08a7.93,7.93,0,0,1,6.89-4m-7,11a6.87,6.87,0,0,0,1.84,5,5.92,5.92,0,0,0,4.46,1.94,6.31,6.31,0,0,0,4.58-1.92,6.62,6.62,0,0,0,1.95-5,7,7,0,0,0-1.91-5.06,6.09,6.09,0,0,0-4.58-2,5.85,5.85,0,0,0-4.5,2,7.18,7.18,0,0,0-1.84,5"/><path class="cls-4" d="M308.83,59.14l12-25.53c-16-10.56-37.81-17.68-60.14-17.68-37.32,0-62.6,18.42-62.6,47.87,0,61.13,92.79,39.77,92.79,78.06,0,13.25-12,20.87-32.16,20.87-18.41,0-40.5-8.84-58.18-25l-12.52,25A105.72,105.72,0,0,0,258.26,190c37.8,0,64.81-18.9,64.81-49.58.24-61.86-92.55-41.73-92.55-79.29,0-11.54,11-17.92,28-17.92,13,0,31.66,4.67,50.32,16"/><path class="cls-4" d="M185.6,103.08c0-35.2-20.47-64.41-50.95-78.15L123.26,49.35a60.12,60.12,0,0,1,32.64,53.73A61,61,0,0,1,94.78,164.2c-33.64,0-61.86-27-61.86-61.12A60.13,60.13,0,0,1,65.83,49.43L54.39,24.9C23.92,38.59,3.46,67.71,3.46,103.08c0,49.09,39.77,87.14,91.07,87.14s91.07-38.05,91.07-87.14"/><rect class="cls-4" x="81.21" y="4.53" width="26.47" height="72.28"/><path class="cls-4" d="M374.49,43.26l-21,21.48V76.61H404V62.28H375.72l12.89-13.4Q396.17,41,399,35.94a21.49,21.49,0,0,0,2.82-10.59q0-10.12-7-16a24.56,24.56,0,0,0-16.27-5.88q-9.25,0-15.24,4a39.48,39.48,0,0,0-11,11.76l12.79,7.58q6-9.63,12.79-9.62a8.12,8.12,0,0,1,6,2.4,8.24,8.24,0,0,1,2.35,6A13,13,0,0,1,383.55,33a91.77,91.77,0,0,1-9.06,10.29"/></g></svg>